# xmcd
#
# Track frame offsets:
# 150
# 11355
# 25147
# 38323
# 52042
# 70802
# 82926
# 96404
# 113097
# 128355
#
# Disc length: 1916 seconds
#
# Revision: 0
# Processed by: cddbd v1.4PL0 Copyright (c) Steve Scherf et al.
# Submitted via: Audion 3.0.2 (http://www.panic.com/audion/)
#
DISCID=6b077a0a
DTITLE=Gary Scott - Homegrown
DYEAR=1900
DGENRE=
TTITLE0=HomeGrown
TTITLE1=Cold Day
TTITLE2=Terminally Blue
TTITLE3=Double or Nothing
TTITLE4=Dixon Line
TTITLE5=Pick A Little Guitar And Sing The Blues
TTITLE6=That Sudden Stop
TTITLE7=My Hometown
TTITLE8=I've Never been a Memory Beforw
TTITLE9=Damn You
EXTD=
EXTT0=
EXTT1=
EXTT2=
EXTT3=
EXTT4=
EXTT5=
EXTT6=
EXTT7=
EXTT8=
EXTT9=
PLAYORDER=
